<svg id="Warstwa_1" data-name="Warstwa 1" xmlns="http://www.w3.org/2000/svg" viewBox="0 0 133.91 37.67"><defs><style>.cls-1{fill:#b0b0b0;}.cls-2{fill:#ffda05;}.cls-3{fill:#1d1e1c;}</style></defs><title>pixel-logo-top</title><path class="cls-1" d="M136.66,40H119.3V22.65h17.36Zm1-18.35H118.3V41h19.36Z" transform="translate(-3.75 -3.33)"/><path class="cls-1" d="M136.66,21.69H119.3V4.33h17.36Zm1-18.36H118.3V22.69h19.36Z" transform="translate(-3.75 -3.33)"/><path class="cls-1" d="M118.28,40H100.93V22.65h17.35Zm1-18.35H99.93V41h19.35Z" transform="translate(-3.75 -3.33)"/><rect class="cls-2" x="96.18" width="19.35" height="19.35"/><path class="cls-3" d="M3.78,8.3H14.36c2.72,0,3.85.23,4.87,1A4.5,4.5,0,0,1,20.8,13a4.31,4.31,0,0,1-1.89,4c-1,.57-1.85.72-4.51.72H9.2v4.76H3.78Zm8.82,6a3.66,3.66,0,0,0,1.78-.21A1.42,1.42,0,0,0,15,12.82c0-1-.55-1.36-2.38-1.36H9.2v2.83Z" transform="translate(-3.75 -3.33)"/><rect class="cls-3" x="19.04" y="4.96" width="5.42" height="14.18"/><polygon class="cls-3" points="31.89 11.57 26.45 4.96 33.46 4.96 35.61 7.68 37.67 4.96 44.45 4.96 38.95 11.72 45 19.14 37.93 19.14 35.29 15.72 32.55 19.14 25.83 19.14 31.89 11.57"/><polygon class="cls-3" points="46.44 4.96 62.49 4.96 62.49 8.57 51.86 8.57 51.86 10.15 60.66 10.15 60.66 13.76 51.86 13.76 51.86 15.53 63.15 15.53 63.15 19.14 46.44 19.14 46.44 4.96"/><polygon class="cls-3" points="65.09 4.96 70.51 4.96 70.51 15.53 80.64 15.53 80.64 19.14 65.09 19.14 65.09 4.96"/><path class="cls-3" d="M5.47,28.53v3.54c0,.74.31,1.08,1.47,1.08h.41v.73l-.53,0c-1.57,0-2.24-.52-2.24-1.83V28.53H3.75V28l.83-.2V26.28h.86v1.51H7.35v.74Z" transform="translate(-3.75 -3.33)"/><path class="cls-3" d="M13.34,33.91c-2.46,0-3-1.5-3-3.13s.62-3.06,3-3.06c2.12,0,2.74,1.34,2.74,3,0,.17,0,.29,0,.45H11.25a1.87,1.87,0,0,0,2.07,2c1.26,0,1.72-.62,1.83-1.08h.92c-.09.75-.79,1.78-2.73,1.78m-.08-5.48c-1.53,0-2,1-2,2.05h3.9c0-1.16-.52-2.05-1.89-2.05" transform="translate(-3.75 -3.33)"/><path class="cls-3" d="M22.34,33.91c-2.37,0-2.95-1.49-2.95-3.09s.59-3.1,2.92-3.1c1.85,0,2.69,1,2.69,2.46h-.9a1.57,1.57,0,0,0-1.81-1.7c-1.59,0-2,1-2,2.33s.42,2.36,2,2.36a1.56,1.56,0,0,0,1.79-1.69H25c0,1.51-.82,2.43-2.66,2.43" transform="translate(-3.75 -3.33)"/><path class="cls-3" d="M33.2,33.84V30.51c0-1.37-.25-2-1.78-2s-1.88.62-1.88,2v3.33h-.88V25.49h.88V28.8c.23-.64.82-1.08,2.12-1.08,2,0,2.43,1.08,2.43,2.86v3.26Z" transform="translate(-3.75 -3.33)"/><path class="cls-3" d="M42.46,33.84V30.55c0-1.3-.25-2.07-1.8-2.07s-1.88.74-1.88,2.07v3.29h-.89V27.79h.41l.26,1.1c.24-.62.89-1.17,2.34-1.17,2.05,0,2.44,1.15,2.44,2.9v3.22Z" transform="translate(-3.75 -3.33)"/><path class="cls-3" d="M49.74,33.91c-2.29,0-2.88-1.5-2.88-3.09s.6-3.1,2.89-3.1,2.9,1.52,2.9,3.1-.61,3.09-2.91,3.09m0-5.43c-1.59,0-2,1.06-2,2.34s.39,2.36,2,2.36,2-1.06,2-2.36-.39-2.34-2-2.34" transform="translate(-3.75 -3.33)"/><rect class="cls-3" x="52.49" y="22.16" width="0.87" height="8.35"/><path class="cls-3" d="M63.57,33.91c-2.29,0-2.88-1.5-2.88-3.09s.6-3.1,2.89-3.1,2.89,1.52,2.89,3.1-.6,3.09-2.9,3.09m0-5.43c-1.59,0-2,1.06-2,2.34s.39,2.36,2,2.36,2-1.06,2-2.36-.39-2.34-2-2.34" transform="translate(-3.75 -3.33)"/><path class="cls-3" d="M72.64,36.39c-2.38,0-3-1-3-2.08h.89c0,.72.38,1.36,2.11,1.36s2-.34,2-.82c0-1.45-4.9-.48-4.9-2.34,0-.49.35-.78,1-.93a1.74,1.74,0,0,1-.85-1.64c0-1.24.53-2.15,2.83-2.15h2.64v.45l-1,.17A1.48,1.48,0,0,1,75.2,30c0,1.28-.5,2.19-2.68,2.19A3.86,3.86,0,0,1,71.29,32c-.56.06-.66.27-.66.45,0,1.08,4.92.22,4.92,2.37,0,.85-.65,1.57-2.91,1.57m-.12-7.88c-1.42,0-1.76.56-1.76,1.42s.29,1.54,1.77,1.54,1.75-.64,1.75-1.54-.29-1.42-1.76-1.42" transform="translate(-3.75 -3.33)"/><path class="cls-3" d="M84.4,33.85c0,1.17-.43,2.42-2.78,2.42-2.18,0-2.75-.94-2.75-1.92h.89c0,.65.31,1.21,1.86,1.21s1.89-.78,1.89-1.65v-1c-.26.63-.86,1-2.12,1-2,0-2.45-1.11-2.45-2.87V27.8h.88v3.31c0,1.3.26,2,1.8,2s1.89-.75,1.89-2.07V27.8h.89Z" transform="translate(-3.75 -3.33)"/></svg>