<svg width="20" height="20" viewBox="0 0 20 20" fill="none" xmlns="http://www.w3.org/2000/svg">
<path d="M10.0004 6.87499C8.27841 6.87499 6.87542 8.27799 6.87542 9.99999C6.87542 11.722 8.27841 13.125 10.0004 13.125C11.7224 13.125 13.1254 11.722 13.1254 9.99999C13.1254 8.27799 11.7224 6.87499 10.0004 6.87499ZM18.0212 9.49543L14.9386 7.95572L16.0291 4.68749C16.1755 4.24478 15.7556 3.82486 15.3162 3.9746L12.0479 5.06509L10.505 1.97916C10.2966 1.56249 9.70419 1.56249 9.49586 1.97916L7.95615 5.06184L4.68466 3.97134C4.24195 3.82486 3.82203 4.24478 3.97177 4.68423L5.06227 7.95246L1.97958 9.49543C1.56292 9.70377 1.56292 10.2962 1.97958 10.5045L5.06227 12.0443L3.97177 15.3157C3.82529 15.7585 4.24521 16.1784 4.68466 16.0286L7.95289 14.9381L9.4926 18.0208C9.70094 18.4375 10.2934 18.4375 10.5017 18.0208L12.0414 14.9381L15.3097 16.0286C15.7524 16.1751 16.1723 15.7552 16.0226 15.3157L14.9321 12.0475L18.0147 10.5078C18.4379 10.2962 18.4379 9.70377 18.0212 9.49543ZM12.9464 12.946C11.322 14.5703 8.6788 14.5703 7.05445 12.946C5.4301 11.3216 5.4301 8.67838 7.05445 7.05403C8.6788 5.42968 11.322 5.42968 12.9464 7.05403C14.5707 8.67838 14.5707 11.3216 12.9464 12.946Z" fill="#374151"/>
</svg>
